<svg xmlns="http://www.w3.org/2000/svg" version="1.1" width="600px" height="600px" viewBox="0 0 200 200" style="overflow:hidden!important;"><g id="svga-group-wrapper"><g id="svga-group-backs-single"><path id="SvgjsPath6840" d="M0 0h200v200H0V0z" fill="#ecf0f1" stroke-width="none" opacity="1"></path></g><g id="svga-group-humanwrap-move" transform="matrix(1,0,0,1,0,0)"><g id="svga-group-humanwrap"><g id="svga-group-hair-back-move" transform="matrix(1,0,0,1,0,0)"><g id="svga-group-hair-back"><path id="SvgjsPath7110" d="M120 28.1s3.7-7.1-5.6-12.8-20.7-6.6-25.1-3.7c0 0-22.9-7.6-40 21.2 0 0-7.1 3.2-11 17.3s8 38.3 8 38.3 11.2 25.9 4.2 38.8-12.9 19.5-12.5 28.6c.5 9 4.6 14.9 13.9 21.7s10.5 19.8 10.5 19.8 11.2-3.2 12.7-8.8c1.5-5.6-1-18.3.5-24.2 1.5-5.9 4.6-12.2 6.8-19.8C84.7 137.1 120 28.1 120 28.1z" fill="#543c32" stroke-width="none" opacity="1"></path><path id="SvgjsPath7111" d="M120.4 22.5c-.5-1.6-1.4-3-2.5-4.2-2.2-2.5-4.8-4.5-7.7-5.9-1.5-.7-3-1.3-4.6-1.7-1.6-.4-3.2-.7-4.8-.8-3.2-.3-6.5.2-9.5 1.3 3.2-.5 6.3-.6 9.4-.1 3.1.4 6.1 1.3 8.8 2.7 1.4.7 2.7 1.4 4 2.4 1.3.9 2.4 1.9 3.6 3 1.1 1.1 2 2.3 2.7 3.7.7 1.4.9 3 .5 4.5.7-1.6.6-3.4.1-4.9zM89.9 11.6c-4.1-1.3-8.5-1.4-12.7-.6-4.2.8-8.2 2.4-11.9 4.6-1.8 1.1-3.6 2.3-5.3 3.7-1.7 1.3-3.2 2.8-4.7 4.4-2.7 3-5 6.5-6.8 10.2-2.4 1.5-4.4 3.5-6 5.8-1.8 2.6-3.2 5.6-4.1 8.7-1.7 6.2-1.7 12.8-.4 19.1 2.6 12.7 9.2 23.9 12.2 36.1 1.5 6.1 2.2 12.5 1.2 18.6-.5 3.1-1.6 6-3.1 8.8-1.5 2.8-3.3 5.3-5 8-1.7 2.7-3.3 5.5-4.3 8.6-1 3.1-1.4 6.5-.5 9.6.9 3.2 3 5.8 5.4 7.9 2.4 2.1 5.1 3.8 7.8 5.4-2.7-1.8-5.3-3.6-7.6-5.7-2.3-2.2-4.2-4.8-5-7.8-.8-3-.4-6.2.7-9.1 1-3 2.6-5.7 4.4-8.3s3.7-5.2 5.2-8.1c1.6-2.8 2.7-5.9 3.3-9.1 1.2-6.4.5-13-1-19.2-1.6-6.2-4-12.2-6.4-18.1-2.4-5.9-4.7-11.8-6.1-17.9-1.4-6.1-1.6-12.6 0-18.7.8-3.1 2-6 3.7-8.6 1.5-2.3 3.4-4.3 5.7-6-1.9 4-3.2 8.2-3.8 12.6-.5 4.2-.4 8.5.3 12.7.8 4.2 2.1 8.2 4 12-.8-1.9-1.5-3.9-2.1-5.9-.5-2-1-4.1-1.2-6.2-.5-4.1-.5-8.3.2-12.4s1.8-8.1 3.7-11.8c.9-1.9 1.9-3.7 3.1-5.4 1.2-1.7 2.5-3.3 3.8-4.9 5.5-6.1 12.8-10.8 20.9-12.6 4-.9 8.3-.9 12.3.2s7.7 3.3 10.4 6.5c-2.5-3.3-6.3-5.8-10.3-7.1zM69 26.8c-3.3 1.4-6.3 3.5-8.9 6-2.5 2.5-4.7 5.5-6.3 8.8-1.6 3.3-2.7 6.7-3.3 10.3-1.3 7.1-.8 14.4.3 21.5 1.2 7.1 3.1 14 4.8 20.9 1.7 6.9 3.3 13.8 3.8 20.9.4 7-.2 14.2-2.8 20.8-.6 1.6-1.4 3.2-2.2 4.8-.5.7-.9 1.5-1.4 2.2-.5.7-1 1.4-1.6 2.1-2.2 2.8-4.6 5.6-6 8.9-.7 1.7-1.2 3.5-1.2 5.3-.1 1.8.4 3.7 1.3 5.2.9 1.6 2.2 2.9 3.6 4s2.9 2 4.5 2.9c-1.5-1-3-2-4.3-3.1-1.3-1.1-2.6-2.4-3.4-4-.8-1.5-1.2-3.3-1.1-5 .1-1.7.6-3.4 1.3-5 1.5-3.2 3.9-5.9 6.1-8.6.6-.7 1.1-1.4 1.6-2.1s1-1.5 1.5-2.3c.9-1.6 1.8-3.2 2.4-4.9 1.4-3.4 2.2-6.9 2.7-10.5.5-3.6.5-7.2.3-10.8-.4-7.2-2-14.3-3.7-21.2-1.8-6.9-3.7-13.8-4.9-20.8-1.2-7-1.6-14.1-.5-21.1.5-3.5 1.5-6.9 3-10.1 1.5-3.2 3.5-6.1 6-8.7 2.4-2.6 5.4-4.7 8.5-6.2 3.2-1.5 6.8-2.2 10.3-2.1-3.4-.1-7.1.5-10.4 1.9z" fill="#351f15" stroke-width="none" opacity="1"></path><path id="SvgjsPath7112" d="m76.2 26.7 4.5-3.6s4-4 13.6-4.9c5.9-.5 15 .1 21.4 4.1 2.6 1.6 4.5 4.8 4.5 4.8s-8.5-4.9-21-4.6c-12.4.4-17.8 1.6-23 4.2z" fill="#000000" stroke-width="none" opacity="1"></path></g></g><g id="svga-group-humanbody-back"><path id="SvgjsPath6908" d="M77.8 105.9s4.8 37.7 10 55.8c0 0-6.4 8.8-14.5 11.9-28.7 11.2-35 11.2-39.6 15.2-2.4 2.1.2 11.1 1.8 17.2 1.3 5 1.7 13.2 1.7 13.2h132.2s1.6-33-.6-39.8-7.1-2.9-21.9-4.5c-14.8-1.6-28.7-10.3-31-13.2l.3-60-38.4 4.2z" fill="#f3d4cf" stroke-width="none" opacity="1"></path></g><g id="svga-group-chinshadow-single"><path id="SvgjsPath6904" d="M85.6 152.8c6.6 3.5 10.7 3.5 10.7 3.5s8 0 19.6-9.5l.2-45.2-38.4 4.2c.1.1 3.6 27.7 7.9 47z" fill="#d4958a" stroke-width="none" opacity="1"></path></g><g id="svga-group-humanbody-front"><path id="SvgjsPath6909" d="M72.1 183.1s14.6-.2 20.4 2.6c5.8 2.9 12.7 2.4 16.1-1s21.6-7 21.6-7-19.7 1.9-25 4.6c-5.3 2.7-22.3-2.8-33.1.8z" fill="#d4958a" stroke-width="none" opacity="1"></path><path id="SvgjsPath6910" d="M74.2 173.2c6.7-1.3 14.7-6.4 14.7-6.4l6.2 5.5c-4.3-7.9-12.7-41.1-12.7-41.1l-.7.7c1.7 10.5 3.9 21.9 6.1 29.7 0 0-6 8.2-13.6 11.6z" fill="#d4958a" stroke-width="none" opacity="1"></path><path id="SvgjsPath6911" d="M170.7 188.5c-.1-2.1-.2-4.1-.4-6.2-.1-1-.3-2.1-.6-3.2-.2-.5-.4-1-.6-1.6-.2-.5-.6-1-1-1.5s-.9-.9-1.5-1.1c-.6-.3-1.1-.4-1.7-.6-1.1-.2-2.2-.2-3.2-.2-2.1 0-4.1.1-6.1.1s-4-.1-6-.2-4-.4-6-.7c-1-.2-2-.4-2.9-.6l-1.5-.4c-.5-.1-1-.3-1.4-.4-3.8-1.1-7.6-2.6-11.2-4.4l-1.3-.7-1.3-.7c-.4-.2-.9-.5-1.3-.8s-.9-.5-1.3-.8-.8-.5-1.3-.8l-1.2-.9-.6-.5-.3-.2-.3-.2c-.2-.2-.4-.3-.5-.5l-.2-.3v-44.6l-.1-15v-.6l-.6.1c-6.4.8-12.9 1.5-19.3 2.3l-19.1 2.3v.5l.1.4.1.9.2 1.8c.1 1.2.3 2.3.4 3.5l.9 7c.6 4.7 1.3 9.4 2.1 14 .8 4.7 1.5 9.3 2.5 14 .9 4.5 1.8 9 3 13.5-1.1 1.4-2.3 2.7-3.6 4-1.3 1.3-2.8 2.6-4.3 3.8-1.5 1.1-3.1 2.2-4.8 3l-1.3.6c-.4.2-.9.3-1.3.5l-2.7 1c-7.2 2.7-14.5 5.3-21.8 7.7l-5.5 1.8c-1.8.6-3.7 1.3-5.5 2.2-.4.2-.9.5-1.3.7-.4.3-.9.5-1.3.9l-.6.5c-.2.2-.5.5-.6.8-.3.5-.4 1.1-.5 1.6-.2 1.1-.1 2.1 0 3.1s.3 2 .4 2.9c.4 1.9.8 3.8 1.3 5.7l.8 2.8c.3.9.5 1.8.7 2.8.4 1.9.7 3.8.9 5.7s.4 3.8.5 5.7v.8h133.4v-.8c.2-4.1.4-8.2.5-12.3s.2-8.2.2-12.3c0-1.8-.1-3.8-.1-5.9zm-67.4 30.3H70.2l-16.5-.1-16-.1c-.1-1.8-.2-3.5-.4-5.3-.2-1.9-.4-3.9-.8-5.8-.2-1-.4-1.9-.7-2.9l-.7-2.8c-.5-1.9-.9-3.7-1.2-5.6-.2-.9-.3-1.9-.4-2.8-.1-.9-.1-1.9 0-2.7.1-.4.2-.8.4-1.1.1-.2.2-.3.3-.4l.5-.4c.3-.3.7-.5 1.1-.8.4-.2.8-.5 1.2-.7 1.7-.8 3.5-1.4 5.3-2l5.5-1.8c7.3-2.4 14.6-5 21.8-7.8l2.7-1c.5-.2.9-.3 1.4-.5l1.4-.6c1.8-.9 3.4-2 5-3.2s3-2.5 4.4-3.9 2.7-2.9 3.8-4.5l.2-.3-.1-.3c-1.3-4.5-2.3-9.1-3.3-13.7s-1.9-9.3-2.7-13.9c-.8-4.6-1.6-9.3-2.4-14l-2.2-13.9 19.3-1.8c6.2-.6 12.3-1.2 18.5-1.8l-.2 14.4-.2 15-.3 30v.4l.2.2.6.7.6.6.3.3.3.2.6.5c.4.3.9.6 1.3.9.4.3.9.6 1.3.9.4.3.9.5 1.3.8s.9.5 1.3.8l1.4.8 1.4.7c.5.2.9.5 1.4.7l1.4.7c1 .4 1.9.8 2.9 1.2s1.9.8 2.9 1.1l1.5.5c.5.2 1 .3 1.5.4.5.1 1 .3 1.5.4l1.5.4c1 .3 2 .4 3 .6 2 .4 4.1.6 6.2.8 2.1.2 4.1.2 6.2.2 2.1 0 4.1-.1 6.1-.1s4 .1 5 1.3c.5.6.9 1.4 1.2 2.3.3.9.4 1.9.6 2.8.3 2 .4 4 .5 6s.1 4.1.2 6.1c.1 7.9-.1 15.8-.4 23.7-10.8.1-21.5.1-32.3.2h-33.1z" fill="#c5796d" stroke-width="none" opacity="1"></path><path id="SvgjsPath6912" d="M150.7 219.2 147 198l-.4 21.2z" fill="#d4958a" stroke-width="none" opacity="1"></path><path id="SvgjsPath6913" d="M47.3 203.5s2.2 11.5 2.9 15.7h3.5l-6.4-15.7z" fill="#d4958a" stroke-width="none" opacity="1"></path></g><g id="svga-group-clothes-single"><path id="SvgjsPath7030" d="M70.5 188.4s17.7 11.1 20.6 13.2c2.9 2.2 13.3 5.2 13.3 5.2s13.5-6.3 15.2-7.7c1.7-1.4 16.3-17.4 16.3-17.4v38H71.7l-1.2-31.3z" fill="#ffffff" stroke-width="none" opacity="1"></path><path id="SvgjsPath7031" d="M73.7 175c.4-1.1 6.3-6.7 6.3-6.7l-5.9.3-19.1 6.5 3.5 1.3s-17.8 6.5-20.2 6.7c-2.5.2-7.2 0-7 2.8 0 0-2.8 1.5-2.8 3.4s6.1 20.2 8.3 30.4h47.1s-7.1-19.1-8.2-23.6c-1.3-4.5-2.4-19.9-2-21.1zm98.9-.1c-1.2-.8-3-.3-3-.3s-.1-2.9-1.2-3-7.7.8-11.9 1.2-13.1-.3-13.1-.3l1.2-1.1c-2.9-.1-16.2-6-17.9-6.5s-5.4-.3-5.4-.3 3.6 2.6 4.2 3.8c.6 1.2 6.9 20.1 6.5 24.5s-5 26.9-5 26.9h45.5c.1 0 1.3-44.2.1-44.9z" fill="#592857" stroke-width="none" opacity="1"></path><path id="SvgjsPath7032" d="M173.6 177.7c0-.5 0-1-.1-1.5 0-.3 0-.5-.1-.8 0-.1 0-.3-.1-.4 0-.1-.1-.2-.1-.3 0-.1-.2-.3-.3-.3l-.1-.1c-.6-.3-1.2-.5-1.8-.5h-.8c0-.4-.1-.7-.2-1.1-.1-.3-.2-.7-.4-1-.1-.2-.3-.4-.5-.6-.2-.2-.7-.3-.8-.3-.8 0-1.3 0-1.9.1l-1.8.2-7.1.8c-2.3.3-4.6.3-7 .3-1.7-.1-3.5-.1-5.2-.2l1.1-1-1.8-.2c-.8-.1-1.8-.4-2.8-.6-1-.3-1.9-.6-2.9-.9l-5.7-2.1c-1.9-.7-3.8-1.4-5.8-2.1-1-.4-2.1-.4-3.1-.4h-3.1s-.1 0-.1.1l.1.1.1.1.2.1.3.3.7.6c.5.4.9.8 1.3 1.2.4.4.9.9 1.2 1.3.2.5.4 1.1.6 1.6.7 2.3 1.4 4.6 2.1 7 .7 2.3 1.3 4.7 1.9 7 .2 1 .5 2 .7 3-.6.6-1.2 1.3-1.8 1.9-2.4 2.4-4.7 4.9-7.1 7.3l-1.8 1.8c-.3.3-.6.5-.9.7-.3.2-.7.4-1.1.6-1.5.8-3 1.5-4.5 2.3l-8.9 4.3c-3-.9-5.9-1.9-8.8-3-1.5-.6-3-1.2-4.2-2.1-1.4-.9-2.7-1.8-4.1-2.6-2.8-1.7-5.5-3.4-8.3-5.1l-3.4-2c-.6-3.8-1-7.7-1.3-11.6-.1-1.1-.2-2.3-.2-3.4v-.8c0-.2 0-.4.2-.6.3-.4.7-.9 1-1.3.7-.9 1.5-1.7 2.3-2.6l1.2-1.3.6-.6.3-.3.2-.2.1-.1s.1-.1.1-.2h-6.1c-3.2 1-6.4 2-9.7 3-3.2 1-6.4 2-9.6 3.1l-2.1.7 2.1.8 1.3.5c-3.9 1.4-7.9 2.7-11.8 4.1-1.2.4-2.3.8-3.5 1.1-.6.2-1.2.4-1.7.5-.3.1-.5.1-.8.2l-.9.1c-1.2.1-2.5.2-3.8.5-.6.2-1.3.4-1.9.9l-.4.4-.3.6c-.1.2-.1.4-.1.6v.2c-.6.4-1.1.8-1.6 1.3-.5.6-1.1 1.4-1.1 2.3 0 .5.1.9.2 1.2.1.4.2.7.3 1.1.2.7.4 1.4.6 2.2l2.6 8.6c.9 2.9 1.7 5.8 2.5 8.7.8 2.9 1.5 5.8 2.1 8.8l.1.4 136.8.1v-.5c.1-4 0-8 .1-12l.2-12 .2-12v-6zm-5.4-5.3zm-108 46.5-8.9.1c-.2-3.1-.6-6.2-1.1-9.3-.5-3.5-1.1-7-1.7-10.4l-.5-2.6-.3-1.3c0-.2-.1-.5-.2-.8-.1-.3-.3-.5-.4-.7-.6-.9-1.4-1.5-2.1-2-.8-.6-1.5-1-2.3-1.4-3.2-1.7-6.6-2.8-10-3.6 3.2 1.6 6.3 3.1 9.3 5 1.4.9 2.9 1.9 3.7 3.1.1.1.2.3.2.4 0 .1.1.2.1.5l.2 1.3.5 2.6c.7 3.4 1.4 6.9 2.2 10.3.7 3 1.5 6 2.3 9h-2.6l-11.4.2c-.7-2.8-1.5-5.6-2.3-8.4l-2.5-8.7c-.8-2.9-1.7-5.8-2.4-8.7-.2-.7-.4-1.5-.5-2.2-.1-.4-.2-.7-.2-1.1-.1-.4-.1-.7-.1-1 0-.6.4-1.1.9-1.6s1.1-.9 1.7-1.2l.3-.2v-.4c0-.5.1-.8.5-1.1.4-.3.9-.5 1.4-.6 1.1-.2 2.3-.3 3.6-.3h1c.3-.1.7-.1 1-.2.6-.1 1.2-.3 1.8-.5 1.2-.4 2.4-.7 3.6-1.1 4.7-1.5 9.4-3.2 14-4.9l.8-.3c.1.1.2.1.4.1l2.1.6c.5.1.9.1 1.4.2-.5.4-1.1.8-1.6 1.2-1.1.9-2.2 1.7-3.2 2.6s-2.1 1.8-3.2 2.7l-.6.5.4.6c.9 1.3 1.8 2.7 2.6 4 .9 1.3 1.8 2.7 2.6 4 .4.7.8 1.4 1.1 2 .3.7.7 1.4 1 2.1l1.9 4.4c2.4 5.6 4.9 11.2 7.6 16.6-4.2.4-8.1.5-12.1.5zm12-.1c-.8-2.8-1.8-5.5-2.7-8.3-1.1-3-2.2-6.1-3.3-9.1l-1.8-4.5c-.3-.8-.6-1.5-1-2.3-.4-.8-.8-1.5-1.2-2.2-1.6-2.6-3.3-5-5-7.4.8-.8 1.6-1.5 2.4-2.3l3-2.9c2-1.9 4.1-3.7 6.1-5.7-1.6 1.1-3.2 2.2-4.8 3.4-.5-.2-1-.5-1.5-.7-.4-.2-.8-.3-1.3-.5l-.6-.2s-.1 0-.1-.1c-.1 0-.2-.1-.2-.1l-1.2-.4-1.4-.5c2.5-.9 4.9-1.8 7.4-2.7 3.2-1.1 6.3-2.3 9.4-3.5 1.8-.1 3.6-.4 5.6-.6l-.2.1-.3.3-.7.6-1.3 1.2c-.8.8-1.7 1.6-2.5 2.4-.4.4-.8.8-1.2 1.3-.1.1-.2.3-.3.4-.1.2-.1.4-.1.5 0 .3-.1.6-.1.9v3.5c.2 4.6.4 9.2 1.1 13.9.2 1.1.3 2.4.7 3.5.3 1.1.7 2.2 1 3.4.7 2.2 1.4 4.4 2.2 6.6 1.3 3.9 2.7 7.8 4.1 11.6-3.5.4-6.8.4-10.2.4zm15.6 0h-3.2L80 206.4l-2.3-6.5c-.4-1.1-.8-2.2-1.1-3.2-.3-1.1-.5-2.1-.7-3.3-.1-.4-.1-.9-.2-1.3l2.8 1.9 8.1 5.4c1.3.9 2.7 1.8 4 2.8 1.4 1 2.9 1.7 4.5 2.3 3 1.3 6.1 2.3 9.2 3.3l.3.1.3-.1c3.1-1.4 6.2-2.9 9.2-4.4l4.5-2.4c.4-.2.8-.4 1.1-.7.4-.3.8-.6 1.1-.9.6-.6 1.2-1.2 1.8-1.9 2.3-2.5 4.6-5.1 6.8-7.6l1.3-1.5c.2 1 .4 2 .5 2.9l.1.9v.8l-.3 1.8-.6 3.6-1.4 7.1-2.7 13.7c-7.4-.1-14.9-.1-22.3-.2-5.5-.2-10.9-.2-16.2-.2zm50.6 0-10.1-.1c.9-4.4 1.7-8.7 2.5-13.1.4-2.4.9-4.8 1.2-7.2l.6-3.6c.1-.6.2-1.2.2-1.9v-1l-.1-1c-.4-2.5-1-4.9-1.6-7.2-.7-2.4-1.4-4.7-2.2-7-.8-2.3-1.6-4.6-2.5-6.9-.2-.6-.4-1.1-.8-1.7-.4-.6-.9-.9-1.3-1.4-.5-.4-1-.8-1.4-1.1l-.8-.5-.4-.3-.1-.1h1.3c.5 0 1 .1 1.5.1 1 .1 2 .2 2.9.6l5.6 2.4c1.9.8 3.8 1.6 5.7 2.3.9.4 1.9.7 2.9 1.1.5.2 1 .3 1.5.5h-.1l-.7.6c-.4.2-.7.5-1.1.8-.9.7-1.8 1.6-2.6 2.4-1.2-.8-2.5-1.5-3.7-2.1 1.2.9 2.5 1.9 3.7 2.9l1.8 1.5c.6.5 1.3.9 2 1.3 1.4.8 2.8 1.5 4.2 2.2 1.1.6 2.2 1.1 3.4 1.6-1.4 2.6-2.8 5.3-4.1 8l-2.1 4.5c-.7 1.5-1.4 3-1.9 4.7-.4 1.7-.8 3.3-1.1 4.9-.3 1.6-.6 3.2-.9 4.9-.5 3.1-1 6-1.4 8.9zm34.1-11c-.1 3.8-.3 7.6-.4 11.5-4.1-.1-8.1-.2-12.2-.2.4-3.5.6-7 .7-10.6.1-3.9.2-7.8.1-11.7 0-1-.1-2-.1-3l-.1-.8v-.5c0-.4.1-.8.2-1.2.5-1.7 1.4-3.5 2.2-5.2 1.8-3.4 3.7-6.8 5.8-10.1-2.8 2.8-5.1 6-7.2 9.3-1 1.7-2 3.4-2.6 5.4-.2.5-.3 1-.3 1.6V193.2l.1.7c.1.9.1 1.9.1 2.9.1 3.9.2 7.8.4 11.7.1 3.5.3 7 .7 10.6-3.3-.1-6.5-.1-9.8-.1l-11.1-.1c.8-2.8 1.5-5.7 2.3-8.5.8-3.2 1.6-6.4 2.5-9.5.2-.7.6-1.4.9-2.2l1-2.2 2.2-4.4 4.4-8.9.4-.9-.9-.4c-2.9-1.2-5.8-2.4-8.6-3.7-.7-.3-1.4-.7-2.1-1.1-.6-.4-1.3-.9-1.9-1.3-.1 0-.1-.1-.1-.1.5-.1 1-.4 1.4-.6.6-.3 1.1-.7 1.6-1.1.3-.3.6-.6 1-.9l.6.1c2.4.2 4.8.4 7.1.5 2.4.1 4.8.1 7.2-.2l7.1-.8 1.8-.2c.6-.1 1.2-.1 1.6-.1l.1.1c.1.1.2.4.3.6.1.5.2 1.1.3 1.6l.1.9.9-.2c.8-.2 1.7-.2 2.3.1v.2c0 .2.1.5.1.7.1.5.1 1 .1 1.5l.3 6c.1 4 .2 8 .1 12-.4 3.9-.5 7.9-.6 11.9z" fill="#3a0f39" stroke-width="none" opacity="1"></path></g><g id="svga-group-head" transform="matrix(1,0,0,1,0,0)"><g id="svga-group-ears-left-move" transform="matrix(1,0,0,1,0,0)"><g id="svga-group-ears-left"><path id="SvgjsPath6856" d="M62.22 91.07s-9.85-8.65-11.43-8.8c-1.36-.13-4.73 7.07-6.22 11.62-.39 1.2-.3 2.54.22 3.7 1.43 3.16 4.6 9.75 7.44 13.05 0 0 2.4.52 3.16.29s6.69-5 7.3-6.86.74-9.97-.47-13z" fill="#f3d4cf" stroke-width="none" opacity="1"></path><path id="SvgjsPath6857" d="M63.07 94.44c.16 1.16.25 2.33.29 3.5.05 1.17.05 2.34-.01 3.51-.03.59-.08 1.17-.15 1.76-.05.3-.09.59-.17.9-.09.31-.25.62-.41.85-.64.98-1.41 1.72-2.18 2.48-.78.74-1.58 1.44-2.39 2.12-.41.33-.82.67-1.25.98-.21.16-.43.31-.65.46l-.35.22c-.14.07-.31.15-.47.17-.59.07-1.09-.01-1.61-.08-.51-.07-1.02-.17-1.53-.28l-.12-.03-.07-.09c-1.28-1.53-2.32-3.25-3.3-4.99-.97-1.75-1.85-3.56-2.7-5.38l-1.25-2.75c-.44-.92-.63-2.02-.48-3.05.06-.52.23-1.01.39-1.48s.33-.94.5-1.41c.35-.93.7-1.86 1.07-2.78.76-1.83 1.55-3.65 2.59-5.32.26-.42.54-.82.88-1.2.17-.19.35-.37.6-.52.12-.07.27-.14.46-.14.17.01.28.06.42.1.94.41 1.65 1 2.43 1.56 1.52 1.14 2.98 2.35 4.41 3.61 1.44 1.25 2.85 2.53 4.24 3.87.43 1.1.64 2.26.81 3.41zm-9.79-10.31c-.75-.52-1.54-1.11-2.29-1.42-.08-.02-.18-.07-.23-.07-.03 0-.1.01-.18.06-.15.08-.31.22-.45.39-.3.32-.57.7-.83 1.09-1.02 1.59-1.92 3.33-2.74 5.1-.41.89-.81 1.78-1.16 2.71-.18.46-.35.92-.52 1.39-.17.47-.34.92-.4 1.41-.13.98.06 2 .49 2.88.42.91.86 1.81 1.32 2.7.9 1.78 1.87 3.52 2.88 5.22 1.02 1.69 2.09 3.35 3.32 4.79l-.19-.11c.97.18 2.03.38 2.91.29.1-.01.16-.06.25-.1l.31-.2.62-.45c.41-.3.82-.63 1.23-.95.81-.66 1.6-1.34 2.37-2.06.75-.72 1.52-1.47 2.11-2.3.15-.22.25-.4.33-.63.07-.24.12-.51.17-.78.08-.55.15-1.12.19-1.69.08-1.14.12-2.29.13-3.45.01-1.15-.04-2.31-.13-3.46-.09-1.14-.23-2.32-.59-3.39-2.96-2.34-5.91-4.75-8.92-6.97z" fill="#e4b3ab" stroke-width="none" opacity="1"></path><path id="SvgjsPath6858" d="M62.45 98.39S52.96 86.4 51.18 87.4s-4.58 6.65-4.57 8.53c.02 2.77 2.95 7.4 4.42 8.8s3.25 2.25 5.6 1.71 5.82-8.05 5.82-8.05z" fill="#e4b3ab" stroke-width="none" opacity="1"></path><path id="SvgjsPath6859" d="M56.36 101.74c-.34-1.14-.73-2.26-1.13-3.37a93.8 93.8 0 0 0-1.28-3.3c-.45-1.09-.93-2.16-1.46-3.21-.54-1.04-1.08-2.08-1.74-3.05l-.07-.11-.07.11c-.66 1.04-1.28 2.1-1.88 3.2-.3.55-.58 1.1-.85 1.67-.28.56-.51 1.16-.74 1.75l-.04.09.04.11c.41 1.24.84 2.46 1.29 3.69.22.61.48 1.21.73 1.81.26.6.52 1.19.87 1.78l.17.27.22-.2c.3-.28.53-.58.77-.9.23-.32.43-.67.61-1.03.35-.73.56-1.57.53-2.42v-.05l-.02-.04c-.44-.87-.91-1.73-1.36-2.6l-.05.03c.37.91.74 1.83 1.13 2.73l-.02-.09c-.03.77-.26 1.51-.61 2.16-.35.65-.82 1.24-1.32 1.7l.39.07c-.3-.51-.56-1.11-.81-1.69l-.72-1.79c-.48-1.2-.93-2.41-1.38-3.62v.2c.4-1.18.85-2.35 1.38-3.47.52-1.13 1.12-2.22 1.8-3.22h-.14c.63.95 1.08 2.04 1.55 3.11l1.36 3.24 1.38 3.24c.46 1.08.92 2.16 1.41 3.23l.06-.03z" fill="#c5796d" stroke-width="none" opacity="1"></path></g></g><g id="svga-group-ears-right-move" transform="matrix(1,0,0,1,0,0)"><g id="svga-group-ears-right"><path id="SvgjsPath6860" d="M137.78 91.07s9.85-8.65 11.43-8.8c1.36-.13 4.73 7.07 6.22 11.62.39 1.2.3 2.54-.22 3.7-1.43 3.16-4.6 9.75-7.44 13.05 0 0-2.4.52-3.16.29s-6.69-5-7.3-6.86c-.61-1.86-.74-9.97.47-13z" fill="#f3d4cf" stroke-width="none" opacity="1"></path><path id="SvgjsPath6861" d="M137.75 91.04c1.4-1.34 2.8-2.62 4.24-3.87 1.43-1.26 2.9-2.47 4.41-3.61.78-.55 1.49-1.14 2.43-1.56.14-.04.25-.1.42-.1.19 0 .34.07.46.14.24.15.43.33.6.52.34.38.61.78.88 1.2 1.04 1.67 1.83 3.49 2.59 5.32.38.92.72 1.85 1.07 2.78.17.47.34.94.5 1.41.16.47.33.96.39 1.48.15 1.03-.04 2.13-.48 3.05l-1.25 2.75c-.85 1.82-1.73 3.63-2.7 5.38-.98 1.75-2.02 3.46-3.3 4.99l-.07.09-.11.02c-.51.11-1.02.2-1.53.28-.52.07-1.02.14-1.61.08-.16-.02-.32-.09-.47-.17l-.35-.22c-.22-.15-.44-.3-.65-.46-.43-.32-.84-.65-1.25-.98-.82-.67-1.62-1.38-2.39-2.12-.77-.76-1.54-1.49-2.18-2.48a3.05 3.05 0 0 1-.41-.85c-.09-.31-.13-.61-.17-.9-.07-.59-.12-1.18-.15-1.76-.06-1.17-.06-2.34-.01-3.51.05-1.17.13-2.34.29-3.5.15-1.15.36-2.31.8-3.4zm.06.05c-.35 1.07-.49 2.24-.59 3.39-.09 1.15-.14 2.31-.13 3.46.01 1.15.05 2.3.13 3.45.04.57.11 1.14.19 1.69.05.27.1.54.17.78.08.23.18.42.33.63.59.83 1.36 1.58 2.11 2.3.76.72 1.56 1.41 2.37 2.06.41.33.81.65 1.23.95l.62.45.31.2c.09.04.15.09.25.1.88.09 1.94-.11 2.91-.29l-.19.11c1.23-1.44 2.3-3.1 3.32-4.79a93.9 93.9 0 0 0 2.88-5.22c.45-.89.9-1.79 1.32-2.7.43-.88.62-1.9.49-2.88-.06-.49-.23-.94-.4-1.41-.16-.47-.34-.93-.52-1.39-.35-.92-.76-1.82-1.16-2.71-.82-1.77-1.72-3.51-2.74-5.1-.26-.39-.53-.77-.83-1.09-.15-.16-.31-.3-.45-.39a.314.314 0 0 0-.18-.06c-.05 0-.15.06-.23.07-.75.31-1.54.9-2.29 1.42-3.02 2.23-5.97 4.64-8.92 6.97z" fill="#e4b3ab" stroke-width="none" opacity="1"></path><path id="SvgjsPath6862" d="M137.55 98.39s9.49-11.99 11.27-10.99 4.58 6.65 4.57 8.53c-.02 2.77-2.95 7.4-4.42 8.8-1.47 1.39-3.25 2.25-5.6 1.71-2.35-.54-5.82-8.05-5.82-8.05z" fill="#e4b3ab" stroke-width="none" opacity="1"></path><path id="SvgjsPath6863" d="M143.64 101.74c.34-1.14.73-2.26 1.13-3.37.4-1.11.84-2.21 1.28-3.3.45-1.09.93-2.16 1.46-3.21.54-1.04 1.08-2.08 1.74-3.05l.07-.11.07.11c.66 1.04 1.28 2.1 1.88 3.2.3.55.58 1.1.85 1.67.28.56.51 1.16.74 1.75l.04.09-.04.11c-.41 1.24-.84 2.46-1.29 3.69-.22.61-.48 1.21-.73 1.81-.26.6-.52 1.19-.87 1.78l-.17.27-.22-.2c-.3-.28-.53-.58-.77-.9-.23-.32-.43-.67-.61-1.03-.35-.73-.56-1.57-.53-2.42v-.05l.02-.04c.44-.87.91-1.73 1.36-2.6l.05.03c-.37.91-.74 1.83-1.13 2.73l.02-.09c.03.77.26 1.51.61 2.16.35.65.82 1.24 1.32 1.7l-.39.07c.3-.51.56-1.11.81-1.69l.72-1.79c.48-1.2.93-2.41 1.38-3.62v.2c-.4-1.18-.85-2.35-1.38-3.47-.52-1.13-1.12-2.22-1.8-3.22h.14c-.63.95-1.08 2.04-1.55 3.11l-1.36 3.24-1.38 3.24c-.46 1.08-.92 2.16-1.41 3.23l-.06-.03z" fill="#c5796d" stroke-width="none" opacity="1"></path></g></g><g id="svga-group-faceshape-wrap"><g id="svga-group-faceshape-single"><path id="SvgjsPath6890" d="M135.9 49.8c-6.7-7.4-11.3-13.2-28.8-17.3-1.8-.4-12.3-.4-14.1 0-17.5 4.1-22.1 9.9-28.8 17.3-7.1 7.8-9.5 29-9.5 29 0 9.6 1.3 32.3 13.3 47.2 17.8 22.2 32.1 22.3 32.1 22.3s14.2 0 32.1-22.3c12-14.9 13.3-37.6 13.3-47.2-.1 0-2.5-21.2-9.6-29z" fill="#f3d4cf" stroke-width="none" opacity="1"></path><path id="SvgjsPath6891" d="M107.1 32.5c-1.8-.4-12.3-.4-14.1 0-17.5 4.1-22.1 9.9-28.8 17.3-7.1 7.8-9.5 29-9.5 29 0 9.6 1.3 32.3 13.3 47.2 17.8 22.2 32.1 22.3 32.1 22.3s14.2 0 32.1-22.3c12-14.9 13.3-37.6 13.3-47.2 0 0-2.4-21.2-9.5-29-6.9-7.4-11.5-13.2-28.9-17.3zM142 63.8c.7 2.5 1.1 5 1.6 7.5.4 2.5.7 5 1 7.5-.2 7.4-1.3 14.8-3 22-.9 3.6-1.9 7.1-3.3 10.5-.7 1.7-1.4 3.4-2.2 5s-1.7 3.2-2.7 4.7l-1.5 2.2c-.3.4-3.4 4.2-3.4 4.2l-3.7 4.1-6.1 5.7c-2.8 2.3-5.8 4.5-9 6.2l-1.2.6-1.2.6c-.8.4-1.6.7-2.5 1l-1.3.4c-.4.1-.8.2-1.3.3-.4.1-1.71.43-2.9.4 0 0-1.4-.2-1.9-.3-.4-.1-.9-.2-1.3-.3l-1.3-.4c-.8-.3-1.7-.6-2.5-1l-1.2-.5-1.2-.6c-3.2-1.6-6.3-3.7-9.1-6l-4.1-3.6-3.9-3.9-1-1-.9-1-1.8-2.1c-1.2-1.4-2.3-2.8-3.3-4.4-1-1.5-2-3.1-2.8-4.8-.8-1.6-1.6-3.3-2.3-5.1-.7-1.7-1.3-3.5-1.8-5.3s-1-3.6-1.4-5.4-.8-3.6-1-5.5c-.3-1.8-.5-3.7-.7-5.5-.4-3.7-.5-7.4-.5-11.1.3-2.3.8-4.6 1.2-6.9.5-2.3 1.1-4.6 1.7-6.8.7-2.2 1.4-4.5 2.3-6.6.4-1.1.9-2.1 1.4-3.1s2.59-4.47 6.3-8.1c1.6-1.7 3.3-3.3 5-4.7 3.5-2.8 7.7-4.9 12-6.5l1.6-.6c6.69-2.31 10.6-2.2 11.8-2.3 2.3-.1 4.71-.26 7-.1 3.16.22 6.8 1.4 6.8 1.4 2.3.6 4.5 1.3 6.7 2.3.3.1 1.6.7 1.6.7.5.3 2.6 1.3 3.1 1.7.5.3 5.3 3.7 6.9 5.4 1.7 1.7 3.3 3.4 4.9 5.2 1.7 1.9 2.9 4.2 3.9 6.6 1.1 2.4 1.9 4.8 2.5 7.3z" fill="#c5796d" stroke-width="none" opacity="1"></path></g></g><g id="svga-group-mouth-single-move" transform="matrix(1,0,0,1,0,0)"><g id="svga-group-mouth-single"><path id="SvgjsPath6845" d="M86.3 122.77s3.78 5.21 6.46 6.76c2.69 1.54 6.74 2.85 11.37 1.48s9.37-6.41 9.37-6.41-5.48-2.85-7.85-3.27c-2.37-.42-6 1.66-6 1.66s-2.47-1.96-3.95-2.2-9.4 1.98-9.4 1.98z" fill="#da7c87" stroke-width="none" opacity="1"></path><path id="SvgjsPath6846" d="M84.89 122.33c2.54.48 5.06 1.07 7.57 1.72 1.26.32 2.5.67 3.76 1.04.65.2 1.19.39 1.81.47.61.09 1.23.12 1.86.11 1.25.01 2.52-.11 3.77-.31.31-.05.62-.1.94-.16.32-.06.65-.12.97-.16.64-.1 1.29-.17 1.93-.24 1.29-.13 2.58-.21 3.87-.25 1.29.02 2.55-.09 3.83-.34-1.21.49-2.52.76-3.79.89-1.27.17-2.54.36-3.81.57l-1.89.34c-.31.06-.62.13-.93.2l-.96.21c-1.29.24-2.59.37-3.91.38-.66-.01-1.32-.04-1.99-.15-.66-.09-1.36-.32-1.94-.53l-3.69-1.21c-2.49-.82-4.95-1.65-7.4-2.58z" fill="#cb5f6c" stroke-width="none" opacity="1"></path></g></g><g id="svga-group-eyes-left-move" transform="matrix(1,0,0,1,0,0)"><g id="svga-group-eyes-left"><g id="svga-group-eyesback-left"><path id="SvgjsPath6966" d="M80.2 77.2c7.5 0 13.5 5.8 13.5 13s-6 13-13.5 13-13.5-5.8-13.5-13 6-13 13.5-13z" fill="#ffffff" stroke-width="none" opacity="1"></path></g><g id="svga-group-eyesiriswrapper-left" transform="matrix(1,0,0,1,0,0)"><g id="svga-group-eyesiriscontrol-left" transform="matrix(1,0,0,1,0,0)"><g id="svga-group-eyesiris-left"><path id="SvgjsPath6928" d="M80.2 84.6c3.1 0 5.6 2.5 5.6 5.6s-2.5 5.6-5.6 5.6-5.6-2.5-5.6-5.6 2.5-5.6 5.6-5.6z" fill="#3c0d09" stroke-width="none" opacity="1"></path><path id="SvgjsPath6929" d="M80.2 87.2c1.7 0 3 1.3 3 3s-1.3 3-3 3-3-1.3-3-3 1.3-3 3-3z" fill="#000000" stroke-width="none" opacity="1"></path><path id="SvgjsPath6930" d="m79.5 87.8-.6-.6c-.2-.2-.5-.3-.8-.3s-.6.1-.8.3c-.2.2-.3.5-.3.8s.1.6.3.8l.6.6c.2.2.5.3.8.3s.6-.1.8-.3c.4-.6.4-1.2 0-1.6zm2.7 5.1c1 0 1-1.5 0-1.5-.9 0-.9 1.5 0 1.5z" fill="#ffffff" stroke-width="none" opacity="1"></path></g></g></g><g id="svga-group-eyesfront-left"><path id="SvgjsPath6974" d="M80.2 76.7c-7.8 0-14.1 6.1-14.1 13.6s6.3 13.6 14.1 13.6 14.1-6.1 14.1-13.6S88 76.7 80.2 76.7zm-4 19.2c-4.4-1.5-5.8-6.1-6.6-9.2-.8-3.2 12.5-3.2 16-.4s4.8 6.7 5 8.7c0 0-10 2.5-14.4.9z" fill="#f3d4cf" stroke-width="none" opacity="1"></path><path id="SvgjsPath6975" d="M90.7 95v-.2c0-.5-.1-1-.3-1.4-.1-.3-.2-.6-.2-.9-.5-1.8-1.3-4.1-2.7-5.6-1.1-1.2-3.7-4-8.2-4s-7.9 1.6-8.4 1.8c-.9.4-2.5 2.3-2.5 2.3s.4-.1 1.1-.3c0 .1 0 .2.1.3.1.3.2.6.2.8.2.5.3 1.1.5 1.6.4 1.1.9 2.1 1.5 3.1.6.9 1.4 1.8 2.3 2.5s2 1.2 3.1 1.4c2.3.4 4.6.2 6.8 0 2.2-.3 4.4-.7 6.7-1.4-.1 0-.1 0 0 0 0-.1 0 0 0 0zm-.1 0c-2.2.4-4.4.8-6.7 1-1.1.1-2.2.2-3.3.2-1.1 0-2.2 0-3.3-.2-2.2-.4-4.1-1.8-5.3-3.7-.6-.9-1.1-2-1.4-3-.2-.5-.3-1.1-.5-1.6-.1-.3-.1-.5-.2-.8 0-.1-.1-.2-.1-.3 2.2-.6 6.6-1.8 9.6-1.8 4.1.1 7.2 3.3 8.4 4.6 1.1 1.1 2.4 4.4 2.8 5.3v.3z" fill="#2a150e" stroke-width="none" opacity="1"></path></g></g></g><g id="svga-group-eyes-right-move" transform="matrix(1,0,0,1,0,0)"><g id="svga-group-eyes-right"><g id="svga-group-eyesback-right"><path id="SvgjsPath6967" d="M119.8 77.2c7.5 0 13.5 5.8 13.5 13s-6 13-13.5 13-13.5-5.8-13.5-13 6-13 13.5-13z" fill="#ffffff" stroke-width="none" opacity="1"></path></g><g id="svga-group-eyesiriswrapper-right" transform="matrix(1,0,0,1,0,0)"><g id="svga-group-eyesiriscontrol-right" transform="matrix(1,0,0,1,0,0)"><g id="svga-group-eyesiris-right"><path id="SvgjsPath6931" d="M119.8 85.3c2.7 0 4.9 2.2 4.9 4.9s-2.2 4.9-4.9 4.9-4.9-2.2-4.9-4.9 2.2-4.9 4.9-4.9z" fill="#3c0d09" stroke-width="none" opacity="1"></path><path id="SvgjsPath6932" d="M119.8 87.5c1.5 0 2.7 1.2 2.7 2.7s-1.2 2.7-2.7 2.7-2.7-1.2-2.7-2.7 1.2-2.7 2.7-2.7z" fill="#000000" stroke-width="none" opacity="1"></path><path id="SvgjsPath6933" d="M119.2 88.1c-.2-.2-.3-.4-.5-.5s-.4-.3-.7-.3c-.2 0-.5.1-.7.3-.2.2-.3.4-.3.7 0 .2.1.5.3.7.2.2.4.3.5.5s.4.3.7.3c.2 0 .5-.1.7-.3.3-.5.3-1.1 0-1.4zm2.4 4.5c.8 0 .8-1.3 0-1.3s-.8 1.3 0 1.3z" fill="#ffffff" stroke-width="none" opacity="1"></path></g></g></g><g id="svga-group-eyesfront-right"><path id="SvgjsPath6976" d="M119.8 76.7c-7.8 0-14.1 6.1-14.1 13.6s6.3 13.6 14.1 13.6 14.1-6.1 14.1-13.6-6.3-13.6-14.1-13.6zm4.4 18.2c-4 1.6-13.7.1-13.7.1.1-1.8 1.2-5.3 4.3-7.9s15.7-3.4 15.1-.6c-.5 2.8-1.7 6.8-5.7 8.4z" fill="#f3d4cf" stroke-width="none" opacity="1"></path><path id="SvgjsPath6979" d="M130.2 86.6s0-1.2-.8-1.5c-.6-.2-4-.9-8.3-.7-2.4.1-4.2 1-5.5 1.9-.3.1-.5.3-.8.5-.8.7-1.6 1.5-2.2 2.3-1 1.4-1.7 2.9-2 4.6-.3 1.1-.3 1.9-.3 1.9s.1-.2.2-.6c2.1.4 4.1.6 6.2.8 1 .1 2.1.1 3.1 0 1.1 0 2.1-.1 3.1-.4 1-.2 2-.7 2.9-1.3.9-.6 1.6-1.4 2.2-2.3.6-.9 1-1.8 1.3-2.8.2-.5.3-1 .4-1.5l.2-.8v-.2c.2.1.3.1.3.1zm-.4.1-.2.8c-.1.5-.2 1-.4 1.5-.3 1-.7 1.9-1.3 2.8-1.1 1.7-3 2.9-5 3.3-.5.1-1 .2-1.5.2s-1 .1-1.6.1c-1 .1-2.1 0-3.1 0-2.1-.1-4.1-.2-6.2-.4.5-1.3 1.5-4.1 2.4-5.1 1.1-1.3 3.8-4.1 7.7-4.4 3.3-.2 7.8.8 9.1 1.1.1-.1.1 0 .1.1z" fill="#2a150e" stroke-width="none" opacity="1"></path></g></g></g><g id="svga-group-facehighlight-single"></g><g id="svga-group-eyebrows-left-move" transform="matrix(1,0,0,1,0,0)"><g id="svga-group-eyebrows-left-rotate" transform="matrix(1,1.7453292519943295e-9,-1.7453292519943295e-9,1,1.3491613515270728e-7,-1.3681636801265995e-7)"><g id="svga-group-eyebrows-left"><path id="SvgjsPath7016" d="M64.67 79.76c2.13-1.22 4.29-2.43 6.52-3.32.55-.23 1.11-.42 1.66-.55l.4-.08c.11 0 .2-.01.34 0 .13 0 .26.02.4.04.14.01.28.04.42.07 1.15.2 2.32.52 3.48.86 1.17.34 2.32.75 3.47 1.15 1.15.4 2.32.76 3.51 1.05 1.19.29 2.38.56 3.6.77 1.21.22 2.43.41 3.69.49l.07-.22c-1.07-.71-2.19-1.28-3.31-1.81-1.13-.54-2.28-1-3.44-1.43-1.16-.42-2.35-.77-3.56-1.04-1.21-.26-2.42-.5-3.64-.75-1.22-.24-2.44-.47-3.72-.59l-.49-.03c-.16-.01-.33-.01-.51 0-.17 0-.38.03-.57.07l-.49.15c-.63.22-1.21.49-1.76.79-1.11.6-2.16 1.27-3.19 1.97a50.2 50.2 0 0 0-3 2.2l.12.21z" fill="#543c32" stroke-width="none" opacity="1"></path></g></g></g><g id="svga-group-eyebrows-right-move" transform="matrix(1,0,0,1,0,0)"><g id="svga-group-eyebrows-right-rotate" transform="matrix(1,1.7453292519943295e-9,-1.7453292519943295e-9,1,1.3646366880948335e-7,-2.1346249923226424e-7)"><g id="svga-group-eyebrows-right"><path id="SvgjsPath7017" d="M134.94 78.92c-2.06-.91-4.15-1.81-6.28-2.42-.53-.16-1.06-.28-1.57-.35l-.37-.04c-.1.01-.19.01-.31.03-.11.01-.24.04-.37.07-.12.02-.25.06-.38.09-1.04.27-2.1.64-3.14 1.03-1.05.39-2.08.84-3.11 1.29-1.03.45-2.08.85-3.15 1.2-1.07.35-2.15.68-3.25.96-1.1.29-2.21.55-3.36.72l-.08-.19c.93-.71 1.91-1.3 2.91-1.86 1-.56 2.02-1.06 3.05-1.53 1.04-.46 2.1-.86 3.19-1.19 1.09-.33 2.19-.63 3.29-.94 1.1-.31 2.21-.61 3.38-.81.15-.02.29-.05.45-.06.15-.02.31-.03.47-.04.15-.01.35 0 .53.01l.46.09c.6.15 1.15.34 1.69.56 1.07.44 2.09.95 3.1 1.49 1 .54 1.98 1.11 2.95 1.71l-.1.18z" fill="#543c32" stroke-width="none" opacity="1"></path></g></g></g><g id="svga-group-nose-single-move" transform="matrix(1,0,0,1,0,0)"><g id="svga-group-nose-single"><path id="SvgjsPath7006" d="M109.52 109.12c-.37-.88-.94-1.63-1.59-2.29.5.77.95 1.58 1.22 2.42.13.42.21.86.14 1.25-.04.2-.1.36-.23.53-.12.17-.25.34-.41.47-.61.58-1.49.8-2.35.68-.43-.05-.87-.17-1.28-.35-.39-.14-.76-.35-1.13-.54.33-.49.63-1.01.89-1.55-.86.8-1.66 1.61-2.52 2.32-.43.35-.86.7-1.32.96-.45.27-.94.48-1.33.46-.1.01-.18-.02-.27-.03-.08-.05-.15-.05-.26-.14-.21-.13-.43-.31-.65-.48-.44-.34-.87-.72-1.31-1.08-.87-.74-1.75-1.48-2.69-2.17.44.7.95 1.34 1.47 1.97-.44.2-.89.36-1.34.46-.56.11-1.15.13-1.62-.09-.95-.47-1.51-1.61-1.35-2.58.04-.25.12-.44.26-.65.15-.23.32-.46.49-.69.35-.45.72-.9 1.11-1.33l.58-.65c.23-.25.4-.49.58-.74.36-.5.68-1.03.94-1.61.26-.57.42-1.23.52-1.81.1-.59.2-1.18.26-1.77.13-1.18.24-2.36.27-3.55.08-2.37.02-4.76-.45-7.08.05 2.36-.12 4.7-.35 7.03-.13 1.16-.26 2.33-.44 3.48-.09.58-.18 1.15-.28 1.72-.11.58-.23 1.07-.47 1.57-.22.5-.5.99-.82 1.45-.16.23-.33.47-.5.65-.2.23-.39.45-.58.68-.38.46-.74.94-1.09 1.43-.17.25-.35.5-.5.77-.18.29-.3.67-.32 1-.11 1.38.74 2.67 1.98 3.12.64.2 1.29.1 1.86-.1.47-.16.9-.4 1.31-.67.21.25.41.5.63.74.39.44.8.84 1.24 1.25.22.2.45.39.72.57.11.09.32.19.5.27.19.05.39.1.58.1.77 0 1.36-.33 1.88-.66.51-.36.96-.75 1.36-1.2.39-.42.74-.87 1.06-1.34.66.58 1.44 1.09 2.36 1.27.47.1.98.11 1.46 0 .48-.12.94-.36 1.31-.7.19-.17.34-.37.48-.57.15-.2.26-.48.28-.73.03-.54-.1-1.03-.29-1.47z" fill="#c5796d" stroke-width="none" opacity="1"></path></g></g><g id="svga-group-hair-front"><path id="SvgjsPath7108" d="M39.7 160.7c-.4-.9-.6-1.5-.6-1.5s.2.6.6 1.5zm40.4-10.1s-.7-3.8-5.2-4.6c-3.9-.8-6.9 1.7-7.7 2.6-1.5.2-4.9-1.9-11 4.8-7.3 7.9-3.1 18.8-3.1 18.8-8.5-2.2-12.1-8.5-13.4-11.3 1.5 3.8 5.6 13.8 9.2 15.5 4.4 2.1 12.3 7.8 12.7 13.8.3 6-5.2 8.3-5.2 8.3 11.8.3 16.4-4.9 17.8-7.1s2.9-6.8 2.3-11.5-1.3-17.1 1.7-24.3c1.1-3.2 1.9-5 1.9-5zM55.8 88.8l2 1.7s-.3-15.4 9.4-27.8 18-10.7 18-10.7S97 56.7 108 55c0 0 7.4 0 9.4 9 0 0 4-5.7-3.7-10.7 0 0 8.4-.3 13.4 2.3 5 2.7 9.4 9.7 12 18.4 2.7 8.7 2.3 18.1 2.3 18.1l2-2s3.7-13.7 1-25.4-7.3-18.7-7.3-18.7-1.3-4.3-5.7-7c0 0-3.7-8-10-10 0 0-.7-4-8-5.4 0 0-4.7-2.7-11-1.7 0 0-5-1.7-9.4 0 0 0-6-1.7-10 1.7 0 0-7.7 3.7-11.4 6.4s-4 9.7-4 9.7-1.4.9-2.1 1.9c-.7 1-1.4 3.7-1.4 3.7s-3.4 4.1-4.2 8.7c0 0-2.8 1-3.5 10.9 0 0-1 2.3-1.1 8.5 0 0-1.2 3.2-.8 7.3.4 3.9 1.3 8.1 1.3 8.1z" fill="#543c32" stroke-width="none" opacity="1"></path><path id="SvgjsPath7109" d="M79.7 38.2c-.2-2.5.1-5.1.7-7.6.7-2.5 1.7-4.9 3.2-7.2-1.9 1.9-3.4 4.2-4.3 6.8-.9 2.6-1.3 5.3-1.1 8.1.2 2.7 1 5.4 2.3 7.8 1.3 2.4 3.1 4.5 5.2 6.1-1.8-2-3.2-4.2-4.2-6.6-1-2.3-1.7-4.9-1.8-7.4zm-6.2.2c.2-2.8 1.2-5.6 2.6-8.1 1.5-2.5 3.4-4.7 5.9-6.3-.6.2-1.1.5-1.6.8-3.2.6-6.2 2.4-8.6 4.8-2.4 2.5-4.1 5.8-4.8 9.2-.7 3.5-.3 7.1.8 10.4 1.2 3.3 3.3 6.3 6.1 8.2-2.4-2.4-4-5.5-5-8.6-.9-3.2-1.1-6.5-.5-9.8.6-3.2 2.1-6.2 4.2-8.8 1.9-2.3 4.4-4.2 7.2-5.3-1.9 1.2-3.6 2.8-4.8 4.7-1.7 2.5-2.8 5.5-3.1 8.6-.3 3.1.2 6.2 1.5 9 1.2 2.8 3.2 5.3 5.6 7-2.1-2.1-3.6-4.7-4.5-7.4-.8-2.7-1.3-5.6-1-8.4zm-8.9 32.9c-1.2-2-2.2-4.1-2.9-6.3-.7-2.2-1.1-4.4-1.1-6.7-.1-2.2.2-4.5.7-6.7.5-2.2 1.4-4.3 2.5-6.3 0 .1-.1.2-.1.3-.6 2.1-.7 4.3-.6 6.4.2 2.2.7 4.3 1.7 6.2.9 2 2.2 3.7 3.8 5.1-2.3-3.6-3.6-7.5-3.9-11.5-.2-2-.1-4 .2-6 .3-2 .9-4 1.7-5.9-1.3 1.5-2.2 3.4-2.7 5.3-1.6 1.7-2.8 3.8-3.6 6.1-.8 2.3-1.2 4.7-1.1 7.1.1 2.4.6 4.8 1.5 7s2.2 4.3 3.9 5.9zm-6.5 2c1 2 2.3 3.8 3.9 5.2-2.4-3.6-3.8-7.5-4.3-11.6-.3-2.1-.3-4.1-.1-6.2.2-2.1.7-4.1 1.4-6.2-1.2 1.8-2.1 3.8-2.5 6-.5 2.2-.5 4.4-.3 6.6.3 2.1.9 4.2 1.9 6.2zM57 81.4c.8 1.6 2 3 3.4 4-1-1.4-1.8-2.9-2.3-4.5-.6-1.6-1-3.2-1.2-4.8-.3-1.6-.4-3.3-.5-5-.1-1.7-.2-3.4-.4-5.2-.4 1.7-.6 3.4-.7 5.2-.1 1.7 0 3.5.2 5.2.1 1.8.7 3.5 1.5 5.1zm-1.3 5.3c.7 1.3 1.6 2.6 2.7 3.6-.6-1.4-1.2-2.7-1.6-4.1-.5-1.4-.8-2.8-1.1-4.2-.3-1.4-.5-2.8-.6-4.3-.1-1.4-.1-2.8-.1-4.3-.6 1.4-1 2.9-1.1 4.4-.1 1.5 0 3.1.3 4.6.3 1.4.8 2.9 1.5 4.3zm34.2-47.6c-.4-2.8-.4-5.7.2-8.5.5-2.8 1.5-5.6 2.9-8.2-1.9 2.3-3.3 5-4 7.9-.8 2.9-.9 6-.5 9 .5 3 1.5 5.9 3.2 8.4 1.6 2.5 3.7 4.8 6.2 6.3-2.1-2-3.9-4.4-5.2-6.9-1.4-2.4-2.3-5.2-2.8-8zm10.9-2.6c-.5-2.4-1.1-4.7-2-6.9-.8-2.2-1.8-4.4-3.1-6.5.7 2.3 1.4 4.6 2 6.8.6 2.3 1.2 4.6 1.6 6.9.5 2.3.9 4.6 1.2 7 .3 2.3.6 4.7.9 7.1.3-2.4.4-4.8.3-7.2-.1-2.5-.4-4.8-.9-7.2zm13 1.3c.7 2.6 1.1 5.3 1.1 8 0 1.3-.1 2.7-.4 4-.3 1.3-.9 2.5-2 3.5 1.3-.6 2.1-1.9 2.7-3.2.5-1.3.8-2.8.9-4.2.2-2.8-.2-5.7-.8-8.4-.7-2.7-1.8-5.4-3.3-7.8-1.5-2.4-3.4-4.5-5.6-6.2 1.8 2.1 3.3 4.4 4.6 6.8 1.2 2.3 2.1 4.9 2.8 7.5zm8.1-6.9c-.7-1.2-1.6-2.2-2.5-3.2-2.1-2-4.6-3.6-7.4-4.2 2.6 1.2 4.8 3 6.6 5 1.8 2.1 3.1 4.5 3.9 7.1.8 2.6 1.1 5.3.9 8.1-.2 2.7-.9 5.5-2.1 8 1.7-2.2 2.8-5 3.3-7.9.5-2.9.3-5.8-.6-8.7-.3-.9-.7-1.8-1.1-2.6.8 1 1.6 2.1 2.3 3.2 1.3 2 2.4 4.2 3.2 6.4.8 2.2 1.5 4.6 1.5 6.9 0 1.2-.2 2.3-.8 3.4-.5 1.1-1.3 2-2.4 2.6 1.2-.3 2.3-1.2 3-2.2.7-1.1 1.2-2.4 1.3-3.7.3-2.6-.4-5.1-1.2-7.5-1.6-4.2-4.3-8-7.9-10.7zm12.3 11.5c-1-1.8-2.4-3.5-4-4.7 1.2 1.6 2.2 3.4 3 5.2.7 1.8 1.2 3.7 1.4 5.7.2 1.9 0 3.9-.4 5.8s-1.1 3.8-2.1 5.6c1.5-1.5 2.5-3.3 3.2-5.3.7-2 .9-4.1.8-6.3-.3-2.1-.9-4.1-1.9-6zm7.9 20.6c.2-1.7.1-3.3-.3-5-.3-1.4-.9-2.8-1.6-4v-.4c-.2-2-.7-4-1.6-5.8-.9-1.8-2.2-3.4-3.7-4.6 1.1 1.6 2 3.3 2.6 5.1.6 1.8 1.1 3.6 1.2 5.5.1 1.9 0 3.7-.4 5.6-.4 1.8-1.1 3.7-1.9 5.4 1.4-1.4 2.4-3.2 3-5.1.5-1.5.8-3 .8-4.6.5 2.6.7 5.2.4 7.8-.3 3.1-1.3 6-2.8 8.9 1.2-1.1 2.2-2.4 2.9-3.9.7-1.6 1.2-3.3 1.4-4.9zm2.5 7.5c.3-1.5.5-3.1.3-4.6-.1-1.5-.5-3.1-1.2-4.4.1 1.5.1 3 0 4.5-.1 1.4-.3 2.9-.6 4.3s-.8 2.8-1.3 4.1c-.6 1.3-1.2 2.7-2 4 1.2-.9 2.2-2.1 3-3.4.8-1.5 1.4-3 1.8-4.5zm.5 2.4c-.4 1-.7 2-1 2.9-.3 1-.6 1.9-1 2.8-.4.9-.7 1.9-1.1 2.8-.4.9-.8 1.9-1.2 2.9.9-.6 1.6-1.4 2.2-2.3.6-.9 1.1-1.8 1.5-2.8.4-1 .6-2.1.7-3.1.1-1.1.1-2.2-.1-3.2zm-1.2 9.3-.8 2.9-.9 2.9c-.3 1-.6 1.9-.9 3 .8-.7 1.4-1.6 1.9-2.5.5-.9.9-1.9 1.2-2.9s.5-2.1.6-3.1c.1-1.1 0-2.1-.2-3.2-.4 1-.6 2-.9 2.9zM79 153.1c-2.1 4.1-3.4 8.6-3.8 13.1-.2 2.3-.3 4.6-.1 6.9.2 2.3.5 4.6.7 6.8.2 2.2.2 4.4-.4 6.5-.5 2.1-1.6 4-3 5.7-2.8 3.4-7 5.7-11.6 5.9 2.3.2 4.6-.2 6.8-1.1 2.1-.9 4.1-2.3 5.7-4s2.8-3.8 3.5-6.1c.7-2.3.7-4.7.5-7-.2-2.3-.6-4.6-.8-6.8-.2-2.2-.2-4.5-.2-6.7.2-4.5 1.1-8.9 2.7-13.2zm-17.2 37.6c0-1.3-.3-2.5-.7-3.7-.9-2.4-2.5-4.4-4.3-6.1-1.8-1.7-3.9-3-5.9-4.4-1-.7-2-1.3-2.9-2.1-.9-.7-1.8-1.5-2.5-2.4-1.5-1.8-2.8-3.8-3.9-5.9-1-2.1-1.9-4.4-2.5-6.7-.6-2.3-.9-4.7-.9-7.1-.6 4.8.4 9.8 2.4 14.3 1 2.2 2.2 4.4 3.8 6.3.8.9 1.7 1.8 2.7 2.6 1 .8 2 1.4 3 2.1 2 1.4 4 2.7 5.8 4.2 1.8 1.5 3.3 3.4 4.2 5.5.9 2.1 1.2 4.5.3 6.6-.8 2.1-2.7 4-5.1 4.4 1.2 0 2.4-.4 3.4-1.2 1-.7 1.8-1.8 2.4-2.9.4-.9.7-2.2.7-3.5zm6.4-2.2c.7-2.1.9-4.4.2-6.5-.7-2.2-2.1-3.9-3.5-5.4-1.4-1.5-2.8-3-3.7-4.8-1-1.7-1.5-3.7-1.7-5.7-.4-4 .6-8.2 3.1-11.5-1.5 1.5-2.6 3.3-3.3 5.3-.7 2-1 4.2-.9 6.3.1 2.1.7 4.3 1.6 6.2 1 2 2.5 3.6 3.8 5.1 1.4 1.5 2.7 3.1 3.3 4.9.6 1.8.5 3.9 0 5.7-.5 1.9-1.6 3.7-2.9 5.2-1.3 1.6-3 2.8-4.7 4 1.9-.9 3.7-2.1 5.2-3.5s2.8-3.2 3.5-5.3zM123 13.6c.8 1.4 1.4 3 1.5 4.7.1 1.6-.2 3.3-.8 4.8-.6 1.5-1.6 3-2.8 4.3 1.6-.8 3-2.1 3.9-3.8.9-1.6 1.3-3.5 1.2-5.4-.2-1.9-.9-3.7-2-5.2s-2.7-2.6-4.4-3.2c1.4 1.1 2.5 2.4 3.4 3.8zm-10.1 39.8c1.6.7 2.7 1.8 3.4 3.2.7 1.4 1.1 2.9 1.2 4.4 0 .5 0 .9-.1 1.4-.3-1-.7-2-1.3-2.9-1-1.4-2.4-2.6-3.9-3.4-1.5-.8-3.1-1.4-4.8-1.6 1.4.8 2.8 1.6 4.1 2.6 1.3 1 2.4 2 3.3 3.3.9 1.2 1.4 2.7 1.7 4.2.1.6.1 1.1.1 1.7l-1.2 4.2c1-1.4 1.8-2.8 2.4-4.4.6-1.6 1-3.3 1-5.1-.1-1.8-.6-3.6-1.7-5-.9-1.5-2.5-2.6-4.2-2.6zm-39 101c-.2 2.5-.8 5.1-1.6 7.5-.4 1.2-.9 2.4-1.6 3.6-.6 1.2-1.3 2.3-2 3.4-.8 1.1-1.7 2.3-1.9 3.7-.1.7 0 1.4.3 2 .3.6.9 1.2 1.7 1.4-1.3-.7-1.6-2.2-1.3-3.3.4-1.2 1.3-2.2 2.2-3.3 1.7-2.2 3.1-4.6 4-7.1.5-1.3.8-2.6 1-3.9.2-1.3.4-2.6.3-3.9 0-2.6-.5-5.2-1.4-7.7.4 2.5.5 5.1.3 7.6z" fill="#351f15" stroke-width="none" opacity="1"></path></g><g id="svga-group-glasses-single-move" transform="matrix(1,0,0,1,0,0)"><g id="svga-group-glasses-single"><path id="SvgjsPath7049" d="M62.8 84.7c-.9 1 .1 5.2 1.4 9 1.3 3.7 2.2 6 4.8 6.9 2.6.9 9.3 1.8 16.2 1.1 6.8-.7 7-2.4 7.8-3.7.8-1.2 2.8-8.3 2.8-10.1 0-1.8-3.3-2.5-5.2-2.9-1.9-.3-12.2-1.2-17.3-1.5-5.2-.3-9.3 0-10.5 1.2z" fill="url(#SvgjsLinearGradient7050)" opacity="1"></path><path id="SvgjsPath7054" d="M134.4 84.8c1 .9.7 5.1 0 8.8-.7 3.6-1.2 5.9-3.6 6.8-2.4.9-8.7 1.8-15.5 1.2-6.8-.7-7.3-2.4-8.3-3.6-1-1.2-4.1-8.3-4.3-10.1-.3-1.8 2.9-2.5 4.8-2.8s11.8-1.1 16.7-1.4c5-.4 8.9 0 10.2 1.1z" fill="url(#SvgjsLinearGradient7055)" opacity="1"></path><path id="SvgjsPath7059" d="M137 83.9c-.7-.5-3.7-.7-7.6-.9-3.7-.2-14.9 0-21.4 1.1-3.8.6-6.8 1.3-8.2 1.3h-1.5c-1.4 0-4.6-.7-8.5-1.4-6.8-1.1-18.4-1.4-22.2-1.2-4 .2-7.2.3-7.8.9-.6.5.6 3.9 1 4.6.4.7.7.6 1.1 1.1.4.5 1.7 5.7 2.9 8.3 1.2 2.6 2.7 4.2 10.3 4.7 7.5.5 13.9-.4 16.2-1.4 2.3-1.1 3.7-5.6 4.1-7.1.3-1.5.8-3.1 1.1-3.8s2-1.3 2-1.3h1.5s1.7.6 2.2 1.3c.5.8 1.1 2.4 1.7 3.8.6 1.4 2.7 6 5.1 7.1 2.5 1 8.9 1.9 16.1 1.3 7.2-.6 8.3-2.2 9.1-4.7.8-2.6 1.2-7.7 1.6-8.1.3-.4.6-.3.9-1 .3-.8 1-4.1.3-4.6zm-42.3 6c-.6 4.1-2.2 8.6-3.6 9.7-2 1.6-10.9 2.2-16 1.7-5.2-.5-7.7-1.2-9.1-4.5-1.5-3.3-2.8-8.6-2.7-10.1.1-1.6 1.5-2.5 5.5-2.5 4.1 0 8 .1 13.1.4 5.1.3 9 1.1 11 1.9 1.9.8 2 2 1.8 3.4zm38.5 6.8c-.9 3.2-3.2 3.9-8.1 4.4-4.9.6-13.7 0-15.9-1.6-1.5-1.1-3.8-5.5-5-9.6-.4-1.4-.5-2.6 1.3-3.4 1.8-.8 5.6-1.6 10.5-1.9 4.9-.3 8.7-.3 12.6-.3 3.9 0 5.4.9 5.6 2.5.3 1.5-.1 6.6-1 9.9z" fill="#d7effc" stroke-width="none" opacity="1"></path><path id="SvgjsPath7060" d="M137 83.9c-.6-.3-1.4-.4-2-.5-.7-.1-1.4-.1-2.1-.2-1.4-.1-2.8-.2-4.2-.2-2.8-.1-5.7 0-8.5.1s-5.7.3-8.5.6-5.6.8-8.4 1.4c-1.4.2-2.8.6-4.2.5-1.4.1-2.9-.3-4.2-.5-2.8-.5-5.6-1.1-8.4-1.4-5.6-.6-11.3-.9-17-.9-1.4 0-2.8.1-4.2.2-1.4.1-2.8.1-4.2.4-.3.1-.7.1-1 .3-.2.2-.2.6-.1.9.1.7.3 1.4.5 2 .2.7.4 1.4.8 1.9.2.3.6.3.8.6.2.3.3.7.5 1 .9 2.7 1.6 5.5 2.9 8 .6 1.2 1.7 2.2 3 2.7s2.7.8 4.1 1c2.8.3 5.6.4 8.5.4 2.8-.1 5.7-.3 8.4-.9.7-.2 1.4-.3 2-.6.6-.3 1.1-.8 1.5-1.3.8-1.1 1.4-2.4 1.9-3.7.5-1.3.7-2.7 1.1-4.1.1-.3.2-.7.3-1 .1-.3.2-.7.5-1 .6-.6 1.2-.9 1.9-1.1h1.5c.6.2 1.1.4 1.7.8.3.2.5.4.7.7.2.3.3.5.4.8.5 1.1.9 2.2 1.4 3.3.5 1.1 1 2.2 1.6 3.2.6 1 1.3 2 2.2 2.7.8.8 2 1 3.2 1.3 1.2.3 2.3.4 3.5.6 2.4.3 4.7.4 7.1.3 2.4-.1 4.8-.2 7.1-.6 1.1-.2 2.3-.6 3.3-1.2s1.6-1.7 1.9-2.8c.7-2.3.9-4.7 1.3-7 .1-.3.1-.6.2-.9.1-.3.4-.5.6-.7.5-.3.5-1 .7-1.6l.3-1.8c-.1-.5 0-1.2-.4-1.7zm0 0c.4.5.3 1.2.3 1.8 0 .6-.1 1.2-.2 1.8-.1.3-.1.6-.2.9-.1.3-.2.6-.5.8-.2.2-.5.3-.6.6-.1.3-.1.6-.2.9-.4 2.3-.6 4.7-1.3 7.1-.3 1.1-.9 2.3-2 3-1 .7-2.2 1-3.4 1.3-2.4.5-4.8.6-7.1.7-2.4.1-4.8 0-7.2-.2-1.2-.1-2.4-.3-3.6-.5-.6-.1-1.2-.3-1.8-.5-.6-.2-1.2-.5-1.6-.9-.9-.8-1.7-1.8-2.3-2.8-.6-1-1.2-2.1-1.6-3.2-.4-1.1-.9-2.2-1.4-3.3-.1-.3-.2-.5-.4-.8-.1-.2-.3-.4-.5-.6-.5-.3-1-.6-1.6-.7h.1-1.5.1c-.6.2-1.3.5-1.7 1-.2.2-.3.6-.4.9-.1.3-.2.7-.3 1-.4 1.3-.6 2.8-1.1 4.1-.5 1.3-1.1 2.7-2 3.8-.4.6-1 1.1-1.7 1.4-.7.3-1.4.5-2.1.6-2.8.6-5.7.8-8.5.9-2.8 0-5.7-.1-8.5-.5-1.4-.2-2.8-.5-4.2-1-.7-.3-1.3-.7-1.8-1.2s-1-1.1-1.3-1.7c-1.3-2.6-2-5.3-2.8-8-.1-.3-.2-.7-.4-.9-.2-.2-.6-.3-.8-.7-.5-.6-.6-1.3-.9-2-.2-.7-.4-1.4-.5-2.1 0-.3-.1-.8.2-1.1.3-.2.7-.3 1-.4 1.4-.2 2.8-.3 4.2-.4 1.4-.1 2.8-.2 4.2-.2 5.7 0 11.3.2 17 .7 2.8.3 5.6.8 8.4 1.3 2.8.6 5.6.7 8.4.1 2.8-.5 5.6-1.1 8.4-1.3 2.8-.3 5.7-.4 8.5-.5 2.8-.1 5.7-.1 8.5-.1 1.4.1 2.8.2 4.2.2.7.1 1.4.1 2.1.2 1.1.1 1.8.1 2.4.5zm-42.2 6c-.2 1.7-.6 3.4-1.2 5.1-.3.8-.6 1.7-.9 2.4-.4.8-.7 1.6-1.4 2.2-.7.6-1.6.8-2.4 1.1s-1.7.4-2.6.5c-1.7.2-3.5.3-5.2.4-3.5.1-7-.2-10.4-1-1.7-.4-3.3-1.3-4.2-2.9-.9-1.5-1.4-3.2-2-4.8-.5-1.7-1-3.3-1.2-5.1-.1-.4-.1-.9-.1-1.3 0-.5.2-.9.5-1.3.7-.7 1.6-.9 2.5-1.1 1.8-.3 3.5-.2 5.2-.1l5.2.2c1.7.1 3.5.1 5.2.2 1.7.1 3.5.3 5.2.6 1.7.3 3.4.6 5.1 1.2.8.3 1.7.6 2.2 1.3.6.6.6 1.6.5 2.4zm-.1 0c.1-.8.1-1.8-.5-2.4-.6-.7-1.4-1-2.2-1.2-1.7-.5-3.4-.8-5.1-1-1.7-.2-3.4-.3-5.2-.4-1.7 0-3.5-.1-5.2-.1l-5.2-.1c-1.7 0-3.5-.2-5.2.1-.8.1-1.7.4-2.2.9-.6.6-.5 1.4-.4 2.3.2 1.7.6 3.4 1.1 5.1.5 1.7 1 3.3 1.9 4.8.4.7 1 1.4 1.8 1.8.7.5 1.5.8 2.4 1 3.4.8 6.9.9 10.3.7 1.7-.1 3.4-.2 5.2-.4.9-.1 1.7-.2 2.5-.4s1.7-.4 2.3-.9c.6-.5 1-1.3 1.4-2.1.4-.8.7-1.6 1-2.4.7-1.9 1-3.6 1.3-5.3zm38.5 6.8c-.2.8-.6 1.6-1.2 2.2-.6.6-1.4 1.1-2.1 1.3-1.6.6-3.3.8-5 1-3.4.4-6.8.3-10.2-.1-1.7-.2-3.4-.5-5-1.2-.8-.3-1.4-1.1-1.9-1.8s-.9-1.4-1.3-2.2c-.8-1.5-1.5-3.1-2-4.7-.3-.8-.6-1.6-.7-2.5-.1-.4-.1-.9.2-1.3.2-.4.5-.7.9-1 1.5-.9 3.2-1.2 4.9-1.6 1.7-.3 3.4-.5 5.1-.7 3.4-.2 6.8-.2 10.2-.3l2.5-.1c.8 0 1.7 0 2.6.1.9.1 1.7.2 2.5.6.8.3 1.6 1 1.8 1.9.2.9.1 1.7.1 2.6-.1.8-.1 1.7-.2 2.5-.4 2-.7 3.7-1.2 5.3zm0 0c.4-1.6.7-3.3.9-5 .1-.8.1-1.7.1-2.5s0-1.7-.1-2.5c-.2-.8-.9-1.3-1.6-1.6-.8-.3-1.6-.4-2.4-.4-1.7-.1-3.4 0-5.1.1l-5.1.1c-1.7.1-3.4 0-5.1.1-1.7.1-3.4.3-5 .6s-3.3.6-4.8 1.4c-.3.2-.7.5-.8.9-.2.3-.2.8-.2 1.2.1.8.4 1.6.7 2.4.6 1.6 1.2 3.2 2 4.7.4.7.8 1.5 1.3 2.2.5.7 1 1.3 1.8 1.6 1.5.6 3.2.8 4.9 1 3.3.3 6.7.4 10.1.2 1.7-.2 3.4-.3 5-.8.8-.3 1.6-.7 2.1-1.3.6-.8 1-1.6 1.3-2.4z" fill="#91c2dd" stroke-width="none" opacity="1"></path></g></g></g></g></g><rect id="svga-credit-rect" width="200" height="15" x="0" y="185" fill="#ecf0f1" opacity="0.5" style="display: none;"></rect><text id="svga-credit-text" font-family="Avenir Next, Roboto, Helvetica, Arial, sans-serif" font-size="10px" text-anchor="start" font-weight="400" size="10px" anchor="start" weight="400" fill="#333333" x="33.402061462402344" y="182.29896879196167" style="display: none;"><tspan id="SvgjsTspan6839" dy="13" x="33.402061462402344">Created on AvatarMaker.com</tspan></text></g><defs id="SvgjsDefs6791"><linearGradient id="SvgjsLinearGradient7050" x1="79.157" y1="118.6424" x2="79.157" y2="100.1003" gradientTransform="matrix(1 0 0 -1 0 202)" gradientUnits="userSpaceOnUse" class="svga-on-canvas-glasses-gradient-single-0-null"><stop id="SvgjsStop7051" stop-opacity="1" stop-color="#bfeaf2" offset="0" ></stop><stop id="SvgjsStop7052" stop-opacity="0.649" stop-color="#a1cae3" offset="0.351" ></stop><stop id="SvgjsStop7053" stop-opacity="0" stop-color="#6086c4" offset="1" ></stop></linearGradient><linearGradient id="SvgjsLinearGradient7055" x1="-1736.868" y1="118.4745" x2="-1736.868" y2="100.2229" gradientTransform="matrix(-1 0 0 -1 -1618 202)" gradientUnits="userSpaceOnUse" class="svga-on-canvas-glasses-gradient-single-1-null"><stop id="SvgjsStop7056" stop-opacity="1" stop-color="#bfeaf2" offset="0" ></stop><stop id="SvgjsStop7057" stop-opacity="0.649" stop-color="#a1cae3" offset="0.351" ></stop><stop id="SvgjsStop7058" stop-opacity="0" stop-color="#6086c4" offset="1" ></stop></linearGradient></defs></svg>